<svg width="512" height="512" viewBox="0 0 512 512" fill="none" xmlns="http://www.w3.org/2000/svg">
<rect width="512" height="512" />
<g clip-path="url(#clip0)">
<path d="M466 136.001C466 117.637 453.556 102.134 436.66 97.455C439.398 80.528 449.801 75.271 450.309 75.025C455.29 72.646 457.403 66.679 455.025 61.696C452.648 56.711 446.68 54.6 441.694 56.975C439.295 58.119 419.898 68.245 416.512 97.143C409.441 98.859 402.996 102.475 397.841 107.611C378.172 99.911 357.408 96.001 336 96.001C334.473 96.001 332.965 96.351 331.594 97.024L5.594 257.024C2.232 258.675 0 262.2 0 266.001V446.001C0 451.524 4.477 456.001 10 456.001H502C507.522 456.001 512 451.524 512 446.001V266.001C512 215.288 483.062 174.771 462.498 152.381C464.799 147.272 466 141.727 466 136.001V136.001ZM426 116.001C437.028 116.001 446 124.973 446 136.001C446 146.732 437.38 156.001 426 156.001C414.972 156.001 406 147.029 406 136.001C406 125.15 414.789 116.001 426 116.001ZM338.287 116.017C355.28 116.267 371.79 119.319 387.528 125.089C386.528 128.613 386 132.277 386 136C386 158.056 403.944 176 426 176C434.625 176 442.969 173.166 449.786 168.134C466.552 186.913 488.2 218.018 491.543 256H301.001C295.478 256 291.001 260.477 291.001 266C291.001 271.523 295.478 276 301.001 276H492V316H156C139.458 316 126 329.458 126 346C126 351.514 121.514 356 116 356C110.486 356 106 351.514 106 346C106 329.458 92.542 316 76 316H20V276H211.001C216.523 276 221.001 271.523 221.001 266C221.001 260.477 216.523 256 211.001 256H53.072L338.287 116.017ZM326 406.001V426.001C326 431.515 321.514 436.001 316 436.001C310.486 436.001 306 431.515 306 426.001V406.001C306 389.459 292.542 376.001 276 376.001H20V336.001H76C81.514 336.001 86 340.487 86 346.001C86 362.543 99.458 376.001 116 376.001C132.542 376.001 146 362.543 146 346.001C146 340.487 150.486 336.001 156 336.001H492V376.001H436C419.458 376.001 406 389.459 406 406.001C406 411.515 401.514 416.001 396 416.001C390.486 416.001 386 411.515 386 406.001C386 389.459 372.542 376.001 356 376.001C339.458 376.001 326 389.459 326 406.001ZM20 396.001H276C281.514 396.001 286 400.487 286 406.001V426.001C286 429.507 286.61 432.871 287.72 436.001H20V396.001ZM396 436.001H344.28C345.39 432.871 346 429.507 346 426.001V406.001C346 400.487 350.486 396.001 356 396.001C361.514 396.001 366 400.487 366 406.001C366 422.543 379.458 436.001 396 436.001C412.542 436.001 426 422.543 426 406.001C426 400.487 430.486 396.001 436 396.001H492V436.001H396Z" fill="#2B2A28"/>
<path d="M188.929 213.072L208.929 233.072C212.836 236.978 219.165 236.976 223.072 233.072C226.977 229.167 226.977 222.835 223.072 218.929L203.072 198.929C199.166 195.025 192.836 195.025 188.929 198.929C185.023 202.835 185.023 209.167 188.929 213.072Z" fill="#2B2A28"/>
<path d="M263.071 213.072L283.071 193.072C286.976 189.167 286.976 182.835 283.071 178.929C279.165 175.025 272.835 175.025 268.928 178.929L248.928 198.929C245.023 202.834 245.023 209.166 248.928 213.072C252.836 216.978 259.165 216.976 263.071 213.072Z" fill="#2B2A28"/>
<path d="M328.929 193.072C332.836 196.978 339.165 196.976 343.072 193.072C346.977 189.167 346.977 182.835 343.072 178.929L323.072 158.929C319.166 155.025 312.836 155.025 308.929 158.929C305.024 162.834 305.024 169.166 308.929 173.072L328.929 193.072Z" fill="#2B2A28"/>
<path d="M296 236.001H316C321.522 236.001 326 231.524 326 226.001C326 220.478 321.522 216.001 316 216.001H296C290.478 216.001 286 220.478 286 226.001C286 231.524 290.478 236.001 296 236.001Z" fill="#2B2A28"/>
<path d="M348.929 233.072C352.836 236.978 359.165 236.976 363.072 233.072L383.072 213.072C386.977 209.167 386.977 202.835 383.072 198.929C379.166 195.025 372.836 195.025 368.929 198.929L348.929 218.929C345.023 222.835 345.023 229.167 348.929 233.072Z" fill="#2B2A28"/>
<path d="M256.001 276.001C261.524 276.001 266.001 271.524 266.001 266.001C266.001 260.478 261.524 256.001 256.001 256.001C250.478 256.001 246.001 260.478 246.001 266.001C246.001 271.524 250.478 276.001 256.001 276.001Z" fill="#2B2A28"/>
</g>
<defs>
<clipPath id="clip0">
<rect width="512" height="512" fill="white"/>
</clipPath>
</defs>
</svg>
