<svg width="480" height="480" viewBox="0 0 480 480" fill="none" xmlns="http://www.w3.org/2000/svg">
<rect width="480" height="480" />
<g clip-path="url(#clip0)">
<path d="M447.469 246.82C443.977 224.054 425.262 206.694 402.299 204.92L382.235 203.32C388.568 194.776 391.982 184.419 391.971 173.784C391.998 148.187 372.743 126.677 347.299 123.88L322.603 121.136C326.124 114.769 327.971 107.612 327.971 100.336C328.044 79.988 313.983 62.316 294.139 57.816L267.683 51.704C254.654 48.703 246.525 35.709 249.526 22.68C250.342 19.137 251.946 15.823 254.219 12.984C256.972 9.528 256.401 4.495 252.945 1.742C251.531 0.616 249.778 0.002 247.971 0H223.971C184.207 0 151.971 32.235 151.971 72C151.971 82.709 154.36 93.283 158.963 102.953L155.595 102.577C122.189 98.843 92.081 122.897 88.347 156.303C87.436 164.454 88.182 172.705 90.539 180.561C56.5 182.288 30.306 211.282 32.033 245.32C33.297 270.237 49.44 291.941 72.939 300.321H72.947L128.347 474.401C129.394 477.731 132.48 479.998 135.971 480.001H343.971C347.462 479.998 350.548 477.731 351.595 474.401L405.995 303.321C433.049 299.171 451.618 273.875 447.469 246.82ZM141.819 464L90.907 304H152.987L174.803 464H141.819ZM231.971 464H190.955L169.139 304H231.971V464ZM247.971 464V304H310.371L281.299 464H247.971ZM338.123 464H297.571L326.659 304H389.059L338.123 464ZM431.698 257.234C430.231 274.572 415.77 287.921 398.371 288H93.739C68.473 287.974 47.997 267.498 47.971 242.232C47.909 229.448 53.256 217.234 62.691 208.608C71.084 200.786 82.138 196.447 93.611 196.472C94.859 196.472 96.123 196.52 97.387 196.624L102.187 197C105.141 197.261 107.991 195.842 109.563 193.328C111.155 190.838 111.244 187.672 109.795 185.096C97.633 163.503 105.279 136.14 126.872 123.978C135.071 119.36 144.515 117.436 153.867 118.48L173.771 120.688C177.018 121.091 180.175 119.436 181.691 116.536C183.239 113.67 182.894 110.151 180.819 107.64C161.136 83.784 164.518 48.489 188.374 28.805C198.394 20.537 210.979 16.01 223.971 16H234.755C228.077 37.211 239.859 59.819 261.07 66.497C262.066 66.811 263.074 67.085 264.091 67.32L290.539 73.424C305.248 76.644 314.562 91.178 311.342 105.888C310.22 111.012 307.644 115.704 303.923 119.4L200.539 112L199.403 128L311.283 136L345.531 139.8C362.859 141.709 375.974 156.352 375.971 173.784C375.96 184.982 370.398 195.446 361.123 201.72L128.579 184L127.363 200L372.051 218.6L401.051 220.92C419.541 222.485 433.262 238.743 431.698 257.234Z" fill="#2B2A28"/>
<path d="M199.971 56H183.971V72H199.971V56Z" fill="#2B2A28"/>
<path d="M247.971 80H231.971V96H247.971V80Z" fill="#2B2A28"/>
<path d="M271.971 144H255.971V160H271.971V144Z" fill="#2B2A28"/>
<path d="M151.971 152H135.971V168H151.971V152Z" fill="#2B2A28"/>
<path d="M343.971 168H327.971V184H343.971V168Z" fill="#2B2A28"/>
<path d="M95.971 224H79.971V240H95.971V224Z" fill="#2B2A28"/>
<path d="M207.971 224H191.971V240H207.971V224Z" fill="#2B2A28"/>
<path d="M135.971 256H119.971V272H135.971V256Z" fill="#2B2A28"/>
<path d="M287.971 248H271.971V264H287.971V248Z" fill="#2B2A28"/>
<path d="M391.971 232H375.971V248H391.971V232Z" fill="#2B2A28"/>
</g>
<defs>
<clipPath id="clip0">
<rect width="480" height="480" fill="white"/>
</clipPath>
</defs>
</svg>
