<svg width="512" height="512" viewBox="0 0 512 512" fill="none" xmlns="http://www.w3.org/2000/svg">
<rect width="512" height="512" />
<g clip-path="url(#clip0)">
<path d="M429 422.998C433.142 422.998 436.5 419.64 436.5 415.498V207.35C436.5 199.08 434.457 190.842 430.591 183.526C426.737 176.231 421.077 169.905 414.219 165.229C404.376 158.532 398.5 147.425 398.5 135.52V134.071C400.288 134.439 402.19 134.721 404.255 134.872C407.154 135.07 410.037 134.047 412.162 132.062C414.283 130.082 415.499 127.285 415.499 124.389V82.539C424.746 79.743 431.499 71.147 431.499 61C431.499 50.853 424.746 42.257 415.499 39.461V37.5C415.5 16.822 398.678 0 378 0H352.427C348.285 0 344.927 3.358 344.927 7.5C344.927 11.642 348.285 15 352.427 15H378C390.407 15 400.5 25.093 400.5 37.5V38.5H111.5V37.5C111.5 25.093 121.593 15 134 15H320.241C324.383 15 327.741 11.642 327.741 7.5C327.741 3.358 324.383 0 320.241 0H134C113.322 0 96.5 16.822 96.5 37.5V39.461C87.253 42.257 80.5 50.853 80.5 61C80.5 71.147 87.253 79.743 96.5 82.539V124.39C96.5 127.286 97.716 130.083 99.837 132.063C101.962 134.048 104.847 135.068 107.776 134.87C109.829 134.72 111.72 134.44 113.499 134.074V135.52C113.499 141.351 112.057 147.162 109.328 152.327C106.611 157.47 102.616 161.932 97.781 165.23C83.829 174.722 75.5 190.468 75.5 207.35V465.75C75.5 491.252 96.248 512 121.75 512H390.25C415.752 512 436.5 491.252 436.5 465.75V448.056C436.5 443.914 433.142 440.556 429 440.556C424.858 440.556 421.5 443.914 421.5 448.056V465.75C421.5 482.981 407.481 497 390.25 497H121.75C104.519 497 90.5 482.981 90.5 465.75V235.16H127.684C131.826 235.16 135.184 231.802 135.184 227.66C135.184 223.518 131.826 220.16 127.684 220.16H90.5V207.35C90.5 195.438 96.376 184.328 106.225 177.627C113.078 172.954 118.737 166.628 122.591 159.334C126.456 152.019 128.5 143.784 128.5 135.52V127.519C130.46 126.165 132.259 124.752 133.987 123.387C139.921 118.701 144.608 114.999 154.67 114.999C164.737 114.999 169.427 118.701 175.363 123.387C181.917 128.562 190.072 135 205.34 135C220.615 135 228.773 128.56 235.328 123.385C241.263 118.7 245.95 115 256.01 115C266.071 115 270.758 118.701 276.693 123.386C283.245 128.561 291.401 135 306.67 135C321.945 135 330.103 128.56 336.658 123.385C342.592 118.7 347.28 115 357.34 115C367.397 115 372.084 118.702 378.019 123.388C379.746 124.752 381.542 126.163 383.5 127.516V135.52C383.5 152.395 391.829 168.138 405.775 177.627C410.616 180.928 414.611 185.391 417.329 190.534C420.058 195.699 421.5 201.513 421.5 207.35V220.16H160.428C156.286 220.16 152.928 223.518 152.928 227.66C152.928 231.802 156.286 235.16 160.428 235.16H421.5V415.498C421.5 419.64 424.858 422.998 429 422.998V422.998ZM409 68.5H379.32L385.209 53.5H409C413.136 53.5 416.5 56.864 416.5 61C416.5 65.136 413.136 68.5 409 68.5ZM179.963 53.5L174.074 68.5H142.905L148.794 53.5H179.963ZM196.077 53.5H227.246L221.357 68.5H190.188L196.077 53.5ZM243.36 53.5H274.529L268.64 68.5H237.471L243.36 53.5ZM290.644 53.5H321.813L315.924 68.5H284.755L290.644 53.5ZM337.927 53.5H369.096L363.207 68.5H332.038L337.927 53.5ZM103 53.5H132.68L126.791 68.5H103C98.864 68.5 95.5 65.136 95.5 61C95.5 56.864 98.864 53.5 103 53.5V53.5ZM357.34 100C342.072 100 333.917 106.438 327.363 111.612C321.426 116.299 316.737 120 306.67 120C296.609 120 291.922 116.299 285.988 111.614C279.435 106.439 271.279 100 256.01 100C240.743 100 232.587 106.438 226.034 111.612C220.097 116.299 215.408 120 205.34 120C195.28 120 190.592 116.3 184.658 111.615C178.103 106.44 169.945 100 154.67 100C139.399 100 131.244 106.441 124.691 111.616C120.412 114.995 116.84 117.816 111.501 119.159V83.5H400.501V119.156C395.159 117.81 391.59 114.992 387.316 111.617C380.762 106.441 372.606 100 357.34 100V100Z" fill="#2B2A28"/>
</g>
<defs>
<clipPath id="clip0">
<rect width="512" height="512" fill="white"/>
</clipPath>
</defs>
</svg>
