<svg width="512" height="512" viewBox="0 0 512 512" fill="none" xmlns="http://www.w3.org/2000/svg">
<rect width="512" height="512" />
<path d="M93.524 276L115.74 385.008C118.158 396.712 124.53 407.226 133.786 414.786C143.042 422.345 154.617 426.489 166.568 426.52H343.16C355.111 426.491 366.687 422.35 375.945 414.793C385.203 407.235 391.578 396.723 394 385.02L416.148 276.376C427.329 273.318 437.192 266.663 444.213 257.439C451.234 248.215 455.021 236.936 454.99 225.344C454.959 213.752 451.111 202.493 444.042 193.307C436.972 184.12 427.073 177.518 415.876 174.52C388.468 120.308 325.928 85.468 255.44 85.468C184.952 85.468 122.4 120.308 95.016 174.524C83.9313 177.498 74.1189 184.006 67.067 193.061C60.0152 202.115 56.1086 213.223 55.9399 224.698C55.7712 236.174 59.3495 247.391 66.1321 256.65C72.9147 265.908 82.5315 272.701 93.524 276V276ZM380.268 382.224C378.502 390.768 373.85 398.444 367.092 403.963C360.335 409.482 351.885 412.508 343.16 412.532H166.568C157.843 412.509 149.391 409.483 142.633 403.964C135.875 398.445 131.222 390.769 129.456 382.224L108.256 278.224H108.676C122.386 278.288 135.568 272.944 145.364 263.352C155.197 272.89 168.357 278.224 182.056 278.224C195.755 278.224 208.915 272.89 218.748 263.352C228.579 272.89 241.738 278.224 255.436 278.224C269.134 278.224 282.293 272.89 292.124 263.352C301.957 272.89 315.117 278.224 328.816 278.224C342.515 278.224 355.675 272.89 365.508 263.352C375.125 272.764 388.016 278.082 401.472 278.188L380.268 382.224ZM101.2 187.448C102.272 187.236 103.28 186.776 104.142 186.105C105.005 185.434 105.699 184.571 106.168 183.584C130.4 132.484 189.012 99.468 255.44 99.468C321.868 99.468 380.46 132.484 404.712 183.6C405.181 184.587 405.875 185.451 406.737 186.122C407.6 186.793 408.608 187.252 409.68 187.464C418.553 189.205 426.537 193.993 432.253 200.999C437.968 208.005 441.054 216.789 440.977 225.831C440.899 234.872 437.663 243.602 431.829 250.509C425.995 257.417 417.929 262.067 409.028 263.656C406.772 264.037 404.488 264.234 402.2 264.244C396.156 264.271 390.192 262.867 384.794 260.147C379.397 257.427 374.721 253.467 371.148 248.592C370.497 247.714 369.65 247 368.674 246.507C367.699 246.015 366.621 245.758 365.528 245.756C364.441 245.755 363.369 246.008 362.397 246.494C361.425 246.98 360.579 247.686 359.928 248.556C356.332 253.416 351.646 257.365 346.248 260.086C340.849 262.807 334.888 264.224 328.842 264.224C322.796 264.224 316.835 262.807 311.436 260.086C306.038 257.365 301.352 253.416 297.756 248.556C297.104 247.686 296.259 246.981 295.287 246.495C294.315 246.009 293.243 245.756 292.156 245.756C291.066 245.76 289.992 246.019 289.02 246.511C288.048 247.003 287.204 247.716 286.556 248.592C282.963 253.447 278.283 257.392 272.89 260.11C267.497 262.828 261.541 264.244 255.502 264.244C249.463 264.244 243.507 262.828 238.114 260.11C232.721 257.392 228.04 253.447 224.448 248.592C223.8 247.716 222.956 247.004 221.983 246.512C221.011 246.019 219.938 245.761 218.848 245.756C217.761 245.756 216.689 246.009 215.717 246.495C214.745 246.981 213.9 247.686 213.248 248.556C209.652 253.416 204.966 257.365 199.568 260.086C194.169 262.807 188.208 264.224 182.162 264.224C176.116 264.224 170.155 262.807 164.756 260.086C159.358 257.365 154.672 253.416 151.076 248.556C150.424 247.686 149.579 246.981 148.607 246.495C147.635 246.009 146.563 245.756 145.476 245.756C144.386 245.76 143.312 246.019 142.34 246.511C141.368 247.003 140.524 247.716 139.876 248.592C136.302 253.467 131.625 257.426 126.227 260.147C120.829 262.867 114.864 264.271 108.82 264.244C106.2 264.257 103.587 263.989 101.024 263.444C92.2511 261.649 84.3709 256.871 78.7236 249.922C73.0764 242.972 70.0109 234.281 70.0486 225.327C70.0863 216.372 73.2249 207.707 78.9305 200.806C84.6361 193.905 92.5563 189.193 101.344 187.472L101.2 187.448Z" fill="#2B2A28"/>
<path d="M256 296C254.144 296.001 252.364 296.739 251.051 298.051C249.739 299.364 249.001 301.144 249 303V378.332C249 380.189 249.737 381.969 251.05 383.282C252.363 384.594 254.143 385.332 256 385.332C257.857 385.332 259.637 384.594 260.95 383.282C262.262 381.969 263 380.189 263 378.332V303C262.999 301.144 262.261 299.364 260.949 298.051C259.636 296.739 257.856 296.001 256 296V296Z" fill="#2B2A28"/>
<path d="M210.276 302.02C210.013 300.18 209.031 298.52 207.544 297.404C206.057 296.289 204.188 295.809 202.348 296.072C200.508 296.335 198.848 297.317 197.732 298.804C196.617 300.291 196.137 302.16 196.4 304L207.052 379.336C207.292 381.001 208.124 382.524 209.396 383.626C210.668 384.728 212.293 385.335 213.976 385.336C214.307 385.337 214.637 385.314 214.964 385.268C215.874 385.139 216.75 384.833 217.542 384.366C218.334 383.898 219.026 383.28 219.579 382.545C220.132 381.81 220.534 380.974 220.764 380.083C220.993 379.193 221.045 378.266 220.916 377.356L210.276 302.02Z" fill="#2B2A28"/>
<path d="M161.872 301.624C161.507 299.804 160.434 298.203 158.889 297.173C157.343 296.144 155.452 295.771 153.632 296.136C151.812 296.501 150.211 297.574 149.181 299.119C148.152 300.665 147.779 302.556 148.144 304.376L163.26 379.712C163.578 381.297 164.435 382.722 165.685 383.747C166.934 384.772 168.5 385.334 170.116 385.336C170.581 385.337 171.045 385.29 171.5 385.196C172.401 385.015 173.258 384.659 174.022 384.147C174.786 383.635 175.441 382.978 175.951 382.213C176.46 381.448 176.814 380.589 176.992 379.688C177.17 378.786 177.169 377.857 176.988 376.956L161.872 301.624Z" fill="#2B2A28"/>
<path d="M309.076 296.068C308.166 295.939 307.239 295.99 306.348 296.219C305.458 296.448 304.621 296.851 303.886 297.404C303.151 297.957 302.533 298.649 302.065 299.441C301.598 300.233 301.292 301.109 301.164 302.02L290.508 377.352C290.379 378.262 290.431 379.189 290.66 380.079C290.89 380.97 291.292 381.806 291.845 382.541C292.398 383.276 293.09 383.894 293.882 384.362C294.673 384.829 295.55 385.135 296.46 385.264C296.787 385.31 297.117 385.333 297.448 385.332C299.131 385.331 300.756 384.724 302.028 383.622C303.299 382.52 304.132 380.997 304.372 379.332L315.024 304C315.156 303.088 315.107 302.16 314.88 301.267C314.652 300.374 314.25 299.535 313.698 298.798C313.145 298.062 312.452 297.441 311.659 296.972C310.866 296.504 309.988 296.196 309.076 296.068V296.068Z" fill="#2B2A28"/>
<path d="M357.812 296.136C356.911 295.955 355.982 295.954 355.08 296.132C354.179 296.31 353.32 296.664 352.555 297.173C351.79 297.683 351.133 298.338 350.621 299.102C350.109 299.866 349.753 300.723 349.572 301.624L334.456 376.956C334.091 378.776 334.463 380.666 335.492 382.212C336.52 383.757 338.12 384.83 339.94 385.196C340.397 385.29 340.862 385.337 341.328 385.336C342.944 385.333 344.508 384.771 345.757 383.746C347.006 382.721 347.862 381.296 348.18 379.712L363.296 304.376C363.661 302.556 363.289 300.666 362.26 299.12C361.232 297.575 359.632 296.502 357.812 296.136V296.136Z" fill="#2B2A28"/>
</svg>
