<svg width="470" height="470" viewBox="0 0 470 470" fill="none" xmlns="http://www.w3.org/2000/svg">
<rect width="470" height="470" />
<g clip-path="url(#clip0)">
<path d="M447.5 254.483H429.834V91.095C429.834 64.904 408.525 43.595 382.334 43.595H372.782C366.864 26.814 342.746 15.551 339.657 14.168C337.707 13.295 335.477 13.295 333.527 14.168C330.438 15.551 306.32 26.814 300.402 43.595H284.6C278.133 19.666 242.487 3.03999 238.064 1.05999C236.115 0.186993 233.884 0.186993 231.935 1.05999C227.512 3.03999 191.867 19.666 185.399 43.595H169.597C163.679 26.814 139.561 15.551 136.472 14.168C134.522 13.295 132.292 13.295 130.342 14.168C127.253 15.551 103.135 26.814 97.217 43.595H87.665C61.474 43.595 40.165 64.904 40.165 91.095V254.483H22.5C10.093 254.483 0 264.577 0 276.983C0 289.389 10.093 299.483 22.5 299.483H158.549C162.033 316.579 177.184 329.483 195.294 329.483H208.517V366.122C191.774 374.798 180.471 391.011 178.053 409.596H152.273C138.325 409.596 122.961 419.58 117.296 432.326L107.399 454.596H92.273C88.131 454.596 84.773 457.953 84.773 462.096C84.773 466.239 88.131 469.596 92.273 469.596H112.231C112.296 469.596 357.704 469.596 357.704 469.596C357.769 469.596 377.727 469.596 377.727 469.596C381.869 469.596 385.227 466.239 385.227 462.096C385.227 457.953 381.869 454.596 377.727 454.596H362.601L352.704 432.326C347.039 419.58 331.675 409.596 317.727 409.596H291.947C289.529 391.011 278.226 374.798 261.483 366.121V329.483H274.706C292.816 329.483 307.967 316.579 311.451 299.483H447.5C459.907 299.483 470 289.389 470 276.983C470 264.577 459.907 254.483 447.5 254.483V254.483ZM336.592 29.34C343.374 32.83 351.283 38.236 355.687 43.595H317.499C321.902 38.235 329.812 32.828 336.592 29.34V29.34ZM235.005 16.213C244.747 21.088 262.63 32.008 268.599 43.595H201.411C207.393 32.032 225.272 21.097 235.005 16.213V16.213ZM133.407 29.34C140.189 32.83 148.098 38.236 152.502 43.595H114.314C118.717 38.235 126.628 32.828 133.407 29.34ZM87.666 58.595H382.334C400.254 58.595 414.834 73.174 414.834 91.095V114.095C401.271 115.914 393.361 122.536 386.279 128.497C378.726 134.854 372.759 139.876 359.883 139.876C347.007 139.876 341.041 134.855 333.487 128.497C325.188 121.512 315.781 113.595 297.432 113.595C279.085 113.595 269.68 121.512 261.381 128.498C253.829 134.854 247.864 139.876 234.99 139.876C222.115 139.876 216.15 134.855 208.597 128.497C200.299 121.512 190.893 113.595 172.545 113.595C154.198 113.595 144.793 121.512 136.495 128.497C132.059 132.232 127.869 135.76 122.443 137.819C119.53 138.924 117.605 141.715 117.605 144.831V186.116C117.605 190.252 114.241 193.616 110.105 193.616C105.97 193.616 102.605 190.252 102.605 186.116C102.605 172.445 102.605 146.676 102.608 144.952C102.66 141.839 100.762 138.956 97.77 137.82C92.343 135.76 88.152 132.232 83.716 128.498C76.635 122.536 68.727 115.915 55.166 114.095V91.095C55.166 73.174 69.746 58.595 87.666 58.595V58.595ZM55.166 129.283C63.198 130.857 68.149 135 74.056 139.972C77.927 143.231 82.202 146.829 87.608 149.661L87.606 186.115C87.606 198.521 97.699 208.615 110.106 208.615C122.513 208.615 132.606 198.521 132.606 186.115V149.661C138.011 146.829 142.286 143.23 146.157 139.972C153.709 133.616 159.674 128.594 172.547 128.594C185.422 128.594 191.387 133.615 198.939 139.973C207.238 146.958 216.644 154.875 234.991 154.875C253.338 154.875 262.743 146.958 271.042 139.972C278.594 133.616 284.559 128.594 297.433 128.594C310.31 128.594 316.276 133.615 323.829 139.973C332.128 146.958 341.535 154.875 359.884 154.875C378.233 154.875 387.64 146.958 395.939 139.973C401.848 135 406.8 130.856 414.835 129.282V254.481H55.166V129.283V129.283ZM251.13 377.838C264.753 383.443 274.262 395.469 276.773 409.595H235.062C230.92 409.595 227.562 412.952 227.562 417.095C227.562 421.238 230.92 424.595 235.062 424.595H317.728C325.786 424.595 335.725 431.054 338.998 438.417L346.188 454.595H123.813L131.003 438.417C134.276 431.054 144.215 424.595 152.273 424.595H205.062C209.204 424.595 212.562 421.238 212.562 417.095C212.562 412.952 209.204 409.595 205.062 409.595H193.228C195.739 395.47 205.248 383.444 218.871 377.838C221.683 376.682 223.517 373.942 223.517 370.902V329.482H246.484V370.902C246.483 373.943 248.318 376.682 251.13 377.838V377.838ZM274.706 314.483H195.294C185.517 314.483 177.18 308.212 174.084 299.483H295.916C292.82 308.212 284.484 314.483 274.706 314.483ZM447.5 284.483H22.5C18.364 284.483 15 281.119 15 276.983C15 272.847 18.364 269.483 22.5 269.483H447.5C451.636 269.483 455 272.847 455 276.983C455 281.119 451.636 284.483 447.5 284.483Z" fill="#2B2A28"/>
<path d="M338.186 230.657C342.328 230.657 345.686 227.299 345.686 223.157C345.686 219.015 342.328 215.657 338.186 215.657C334.044 215.657 330.686 219.015 330.686 223.157C330.686 227.299 334.044 230.657 338.186 230.657Z" fill="#2B2A28"/>
<path d="M368.186 200.657C372.328 200.657 375.686 197.299 375.686 193.157C375.686 189.015 372.328 185.657 368.186 185.657C364.044 185.657 360.686 189.015 360.686 193.157C360.686 197.299 364.044 200.657 368.186 200.657Z" fill="#2B2A28"/>
</g>
<defs>
<clipPath id="clip0">
<rect width="470" height="470" fill="white"/>
</clipPath>
</defs>
</svg>
