<svg width="512" height="512" viewBox="0 0 512 512" fill="none" xmlns="http://www.w3.org/2000/svg">
<rect width="512" height="512"/>
<path d="M502 492H492V358C492 333.853 474.795 313.652 452 309.006V214C452 186.43 429.57 164 402 164H398V104C398 76.43 375.57 54 348 54H315.847C318.494 48.906 320 43.127 320 37C320 16.598 303.402 0 283 0C272.39 0 262.816 4.495 256.064 11.673C249.311 4.495 239.737 0 229.127 0C208.725 0 192.127 16.598 192.127 37C192.127 43.127 193.633 48.906 196.28 54H164C136.43 54 114 76.43 114 104V164H110C82.43 164 60 186.43 60 214V309.006C37.205 313.652 20 333.853 20 358V492H10C4.477 492 0 496.478 0 502C0 507.522 4.477 512 10 512H502C507.522 512 512 507.522 512 502C512 496.478 507.522 492 502 492ZM80 256.652C91.056 262.749 103.525 266.005 116.5 266.005C133.563 266.005 149.766 260.401 163.005 250.065C190.247 271.272 228.758 271.268 256 250.061C283.242 271.268 321.753 271.272 348.995 250.065C362.234 260.401 378.436 266.005 395.5 266.005C408.475 266.005 420.944 262.749 432 256.652V308H80V256.652ZM283 20C292.374 20 300 27.626 300 37C300 46.374 292.374 54 283 54C274.189 54 266.926 47.263 266.085 38.67C266.11 38.116 266.128 37.56 266.128 37C266.128 36.44 266.11 35.884 266.085 35.33C266.926 26.737 274.189 20 283 20ZM212.127 37C212.127 27.626 219.753 20 229.127 20C237.938 20 245.2 26.737 246.042 35.33C246.018 35.884 246 36.44 246 37C246 37.56 246.018 38.116 246.042 38.67C245.2 47.263 237.938 54 229.127 54C219.753 54 212.127 46.374 212.127 37ZM110 184H211C216.522 184 221 179.523 221 174C221 168.477 216.522 164 211 164H134V104C134 87.458 147.458 74 164 74H348C364.542 74 378 87.458 378 104V164H301C295.477 164 291 168.477 291 174C291 179.523 295.477 184 301 184H402C418.542 184 432 197.458 432 214V232.38C421.865 241.185 409.057 246.005 395.5 246.005C380.605 246.005 366.603 240.204 356.071 229.672C352.165 225.768 345.835 225.768 341.928 229.672C320.188 251.414 284.811 251.414 263.071 229.672C259.165 225.768 252.835 225.768 248.928 229.672C227.188 251.414 191.811 251.414 170.071 229.672C166.165 225.768 159.835 225.768 155.928 229.672C145.396 240.204 131.394 246.005 116.499 246.005C102.942 246.005 90.134 241.185 79.999 232.38V214C80 197.458 93.458 184 110 184V184ZM70 328H442C458.542 328 472 341.458 472 358V394.789C450.958 413.773 418.389 413.131 398.128 392.868C394.222 388.964 387.892 388.964 383.985 392.868C373.849 403.005 360.372 408.587 346.037 408.587C331.703 408.587 318.226 403.005 308.09 392.868C304.184 388.964 297.854 388.964 293.948 392.868C273.024 413.792 238.977 413.792 218.053 392.868C214.147 388.964 207.817 388.964 203.911 392.868C193.775 403.005 180.298 408.587 165.964 408.587C151.629 408.587 138.152 403.005 128.016 392.868C124.11 388.964 117.78 388.964 113.873 392.868C93.611 413.132 61.042 413.774 40 394.79V358C40 341.458 53.458 328 70 328V328ZM40 492V419.239C65.385 433.405 97.435 431.407 120.938 413.241C133.776 423.193 149.456 428.587 165.963 428.587C182.47 428.587 198.15 423.193 210.986 413.241C224.193 423.449 240.094 428.553 256 428.552C271.901 428.551 287.81 423.446 301.014 413.241C313.852 423.193 329.531 428.587 346.038 428.587C362.545 428.587 378.224 423.193 391.062 413.241C414.565 431.406 446.614 433.404 472 419.239V492H40Z" fill="#2B2A28"/>
<path d="M256 184C258.63 184 261.21 182.93 263.069 181.069C264.93 179.21 266 176.63 266 174C266 171.37 264.93 168.79 263.069 166.93C261.21 165.07 258.63 164 256 164C253.37 164 250.79 165.069 248.93 166.93C247.07 168.79 246 171.37 246 174C246 176.63 247.069 179.21 248.93 181.069C250.79 182.93 253.37 184 256 184Z" fill="#2B2A28"/>
</svg>
